<mxfile host="app.diagrams.net" modified="2024-01-06T01:55:46.096Z" agent="Mozilla/5.0 (Windows NT 10.0; Win64; x64) AppleWebKit/537.36 (KHTML, like Gecko) Chrome/120.0.0.0 Safari/537.36" etag="ugk0as1grwgtitAutlsx" version="22.1.17" type="github">
  <diagram name="PÃ¡gina-1" id="krHgGKo-awH4Qkv40hc9">
    <mxGraphModel dx="1269" dy="446" grid="1" gridSize="10" guides="1" tooltips="1" connect="1" arrows="1" fold="1" page="1" pageScale="1" pageWidth="827" pageHeight="1169" math="0" shadow="0">
      <root>
        <mxCell id="0" />
        <mxCell id="1" parent="0" />
        <mxCell id="AAu9V1KOyKW7mf6Cx_dZ-3" value="" style="rounded=0;whiteSpace=wrap;html=1;" vertex="1" parent="1">
          <mxGeometry x="160" y="330" width="530" height="360" as="geometry" />
        </mxCell>
        <mxCell id="AAu9V1KOyKW7mf6Cx_dZ-5" value="Cliente&lt;br&gt;" style="text;html=1;align=center;verticalAlign=middle;resizable=0;points=[];autosize=1;strokeColor=none;fillColor=none;" vertex="1" parent="1">
          <mxGeometry x="67.5" y="510" width="60" height="30" as="geometry" />
        </mxCell>
        <mxCell id="AAu9V1KOyKW7mf6Cx_dZ-13" style="edgeStyle=entityRelationEdgeStyle;rounded=0;orthogonalLoop=1;jettySize=auto;html=1;exitX=0.5;exitY=0.5;exitDx=0;exitDy=0;exitPerimeter=0;entryX=0;entryY=0.5;entryDx=0;entryDy=0;" edge="1" parent="1" source="AAu9V1KOyKW7mf6Cx_dZ-8" target="AAu9V1KOyKW7mf6Cx_dZ-10">
          <mxGeometry relative="1" as="geometry" />
        </mxCell>
        <mxCell id="AAu9V1KOyKW7mf6Cx_dZ-15" style="edgeStyle=orthogonalEdgeStyle;rounded=0;orthogonalLoop=1;jettySize=auto;html=1;exitX=0.5;exitY=0.5;exitDx=0;exitDy=0;exitPerimeter=0;entryX=0;entryY=0.5;entryDx=0;entryDy=0;curved=1;" edge="1" parent="1" source="AAu9V1KOyKW7mf6Cx_dZ-8" target="AAu9V1KOyKW7mf6Cx_dZ-14">
          <mxGeometry relative="1" as="geometry" />
        </mxCell>
        <mxCell id="AAu9V1KOyKW7mf6Cx_dZ-18" style="edgeStyle=orthogonalEdgeStyle;rounded=0;orthogonalLoop=1;jettySize=auto;html=1;exitX=0.5;exitY=0.5;exitDx=0;exitDy=0;exitPerimeter=0;entryX=0;entryY=0.5;entryDx=0;entryDy=0;curved=1;" edge="1" parent="1" source="AAu9V1KOyKW7mf6Cx_dZ-8" target="AAu9V1KOyKW7mf6Cx_dZ-16">
          <mxGeometry relative="1" as="geometry" />
        </mxCell>
        <mxCell id="AAu9V1KOyKW7mf6Cx_dZ-19" style="edgeStyle=entityRelationEdgeStyle;rounded=0;orthogonalLoop=1;jettySize=auto;html=1;exitX=0.5;exitY=0.5;exitDx=0;exitDy=0;exitPerimeter=0;entryX=0;entryY=0.75;entryDx=0;entryDy=0;" edge="1" parent="1" source="AAu9V1KOyKW7mf6Cx_dZ-8" target="AAu9V1KOyKW7mf6Cx_dZ-17">
          <mxGeometry relative="1" as="geometry" />
        </mxCell>
        <mxCell id="AAu9V1KOyKW7mf6Cx_dZ-8" value="Actor" style="shape=umlActor;verticalLabelPosition=bottom;verticalAlign=top;html=1;outlineConnect=0;" vertex="1" parent="1">
          <mxGeometry x="70" y="380" width="55" height="120" as="geometry" />
        </mxCell>
        <mxCell id="AAu9V1KOyKW7mf6Cx_dZ-10" value="Solicitar Encomiendas" style="rounded=1;whiteSpace=wrap;html=1;" vertex="1" parent="1">
          <mxGeometry x="375" y="350" width="100" height="40" as="geometry" />
        </mxCell>
        <mxCell id="AAu9V1KOyKW7mf6Cx_dZ-14" value="Declarar envios" style="rounded=1;whiteSpace=wrap;html=1;" vertex="1" parent="1">
          <mxGeometry x="375" y="470" width="100" height="30" as="geometry" />
        </mxCell>
        <mxCell id="AAu9V1KOyKW7mf6Cx_dZ-16" value="Entrega Encomienda" style="rounded=1;whiteSpace=wrap;html=1;" vertex="1" parent="1">
          <mxGeometry x="290" y="530" width="120" height="40" as="geometry" />
        </mxCell>
        <mxCell id="AAu9V1KOyKW7mf6Cx_dZ-38" style="edgeStyle=orthogonalEdgeStyle;rounded=0;orthogonalLoop=1;jettySize=auto;html=1;exitX=1;exitY=0.5;exitDx=0;exitDy=0;curved=1;" edge="1" parent="1" source="AAu9V1KOyKW7mf6Cx_dZ-17">
          <mxGeometry relative="1" as="geometry">
            <mxPoint x="740" y="620" as="targetPoint" />
          </mxGeometry>
        </mxCell>
        <mxCell id="AAu9V1KOyKW7mf6Cx_dZ-17" value="Generarar&amp;nbsp; documento de pago" style="rounded=1;whiteSpace=wrap;html=1;" vertex="1" parent="1">
          <mxGeometry x="350" y="610" width="110" height="60" as="geometry" />
        </mxCell>
        <mxCell id="AAu9V1KOyKW7mf6Cx_dZ-30" style="edgeStyle=orthogonalEdgeStyle;rounded=0;orthogonalLoop=1;jettySize=auto;html=1;exitX=0.5;exitY=0.5;exitDx=0;exitDy=0;exitPerimeter=0;entryX=1;entryY=0.5;entryDx=0;entryDy=0;curved=1;" edge="1" parent="1" source="AAu9V1KOyKW7mf6Cx_dZ-20" target="AAu9V1KOyKW7mf6Cx_dZ-14">
          <mxGeometry relative="1" as="geometry" />
        </mxCell>
        <mxCell id="AAu9V1KOyKW7mf6Cx_dZ-40" style="edgeStyle=orthogonalEdgeStyle;rounded=0;orthogonalLoop=1;jettySize=auto;html=1;exitX=0.5;exitY=0.5;exitDx=0;exitDy=0;exitPerimeter=0;entryX=1;entryY=0.5;entryDx=0;entryDy=0;curved=1;" edge="1" parent="1" source="AAu9V1KOyKW7mf6Cx_dZ-20" target="AAu9V1KOyKW7mf6Cx_dZ-10">
          <mxGeometry relative="1" as="geometry" />
        </mxCell>
        <mxCell id="AAu9V1KOyKW7mf6Cx_dZ-20" value="Actor" style="shape=umlActor;verticalLabelPosition=bottom;verticalAlign=top;html=1;outlineConnect=0;" vertex="1" parent="1">
          <mxGeometry x="750" y="385" width="60" height="110" as="geometry" />
        </mxCell>
        <mxCell id="AAu9V1KOyKW7mf6Cx_dZ-29" value="Proveedor" style="text;html=1;align=center;verticalAlign=middle;resizable=0;points=[];autosize=1;strokeColor=none;fillColor=none;" vertex="1" parent="1">
          <mxGeometry x="730" y="510" width="80" height="30" as="geometry" />
        </mxCell>
        <mxCell id="AAu9V1KOyKW7mf6Cx_dZ-31" value="Mostrar destinos" style="rounded=1;whiteSpace=wrap;html=1;" vertex="1" parent="1">
          <mxGeometry x="365" y="410" width="120" height="40" as="geometry" />
        </mxCell>
        <mxCell id="AAu9V1KOyKW7mf6Cx_dZ-33" value="" style="shape=cylinder3;whiteSpace=wrap;html=1;boundedLbl=1;backgroundOutline=1;size=15;" vertex="1" parent="1">
          <mxGeometry x="730" y="590" width="70" height="50" as="geometry" />
        </mxCell>
        <mxCell id="AAu9V1KOyKW7mf6Cx_dZ-34" value="Almacen de base &lt;br&gt;de datos" style="text;html=1;align=center;verticalAlign=middle;resizable=0;points=[];autosize=1;strokeColor=none;fillColor=none;" vertex="1" parent="1">
          <mxGeometry x="705" y="640" width="120" height="40" as="geometry" />
        </mxCell>
        <mxCell id="AAu9V1KOyKW7mf6Cx_dZ-35" value="Guardar&amp;nbsp; Datos&amp;nbsp; Encomienda" style="rounded=1;whiteSpace=wrap;html=1;" vertex="1" parent="1">
          <mxGeometry x="460" y="530" width="120" height="60" as="geometry" />
        </mxCell>
        <mxCell id="AAu9V1KOyKW7mf6Cx_dZ-37" style="edgeStyle=orthogonalEdgeStyle;rounded=0;orthogonalLoop=1;jettySize=auto;html=1;exitX=1;exitY=0.5;exitDx=0;exitDy=0;entryX=0;entryY=0;entryDx=0;entryDy=30;entryPerimeter=0;curved=1;" edge="1" parent="1" source="AAu9V1KOyKW7mf6Cx_dZ-35" target="AAu9V1KOyKW7mf6Cx_dZ-33">
          <mxGeometry relative="1" as="geometry" />
        </mxCell>
        <mxCell id="AAu9V1KOyKW7mf6Cx_dZ-39" style="edgeStyle=orthogonalEdgeStyle;rounded=0;orthogonalLoop=1;jettySize=auto;html=1;exitX=1;exitY=0.5;exitDx=0;exitDy=0;entryX=0.5;entryY=0.5;entryDx=0;entryDy=0;entryPerimeter=0;curved=1;" edge="1" parent="1" source="AAu9V1KOyKW7mf6Cx_dZ-31" target="AAu9V1KOyKW7mf6Cx_dZ-20">
          <mxGeometry relative="1" as="geometry" />
        </mxCell>
      </root>
    </mxGraphModel>
  </diagram>
</mxfile>
